<svg id="cancel" xmlns="http://www.w3.org/2000/svg" width="111.179" height="111.179" viewBox="0 0 111.179 111.179">
  <circle id="Ellipse_7" data-name="Ellipse 7" cx="55.59" cy="55.59" r="55.59" transform="translate(0 0)" fill="#e24c4b"/>
  <path id="Path_23" data-name="Path 23" d="M148.8,93.208a55.753,55.753,0,0,1-55.59,55.59,54.7,54.7,0,0,1-43.429-20.846,54.846,54.846,0,0,0,34.743,12.16,55.753,55.753,0,0,0,55.59-55.59,54.846,54.846,0,0,0-12.16-34.743A54.7,54.7,0,0,1,148.8,93.208Z" transform="translate(-37.617 -37.618)" fill="#d1403f"/>
  <path id="Path_24" data-name="Path 24" d="M169.623,169.623a5.453,5.453,0,0,1-7.644,0L144.26,151.9l-17.719,17.719a5.4,5.4,0,0,1-7.644-7.644l17.719-17.719L118.9,126.541a5.4,5.4,0,0,1,7.644-7.644l17.719,17.719L161.979,118.9a5.4,5.4,0,0,1,7.644,7.644L151.9,144.26l17.719,17.719A5.453,5.453,0,0,1,169.623,169.623Z" transform="translate(-88.671 -88.671)" fill="#fff"/>
</svg>
