<svg xmlns="http://www.w3.org/2000/svg" width="65.396" height="65.402" viewBox="0 0 65.396 65.402">
  <path id="home" d="M63.639,28.446l0,0L36.955,1.764a6.02,6.02,0,0,0-8.515,0L1.775,28.428l-.027.027A6.018,6.018,0,0,0,5.755,38.713q.092.009.186.009H7V58.356A7.055,7.055,0,0,0,14.051,65.4H24.489A1.916,1.916,0,0,0,26.4,63.486V48.093a3.218,3.218,0,0,1,3.215-3.215h6.156a3.218,3.218,0,0,1,3.215,3.215V63.486A1.916,1.916,0,0,0,40.907,65.4H51.345a7.055,7.055,0,0,0,7.047-7.046V38.722h.986a6.021,6.021,0,0,0,4.261-10.276Zm0,0" transform="translate(0 0.001)" fill="#37e9bb"/>
</svg>
