<svg id="update-arrow" xmlns="http://www.w3.org/2000/svg" width="65.403" height="65.403" viewBox="0 0 65.403 65.403">
  <path id="Path_20" data-name="Path 20" d="M55.829,8.247A32.468,32.468,0,0,0,43.23.19V10.326a23.359,23.359,0,0,1,6.164,4.51,24.773,24.773,0,0,1,0,34.321,23.223,23.223,0,0,1-33.4,0,24.791,24.791,0,0,1,0-34.321c.023-.028.1-.076.129-.119h.009l5.457,5.6L21.555,2.54,4.266,2.516,9.7,8.1a.557.557,0,0,1-.125.147,34.244,34.244,0,0,0,0,47.5,32.087,32.087,0,0,0,46.255,0A34.248,34.248,0,0,0,55.829,8.247Z" transform="translate(0 -0.19)" fill="#37e9bb"/>
</svg>
