<svg id="settings" xmlns="http://www.w3.org/2000/svg" width="102.231" height="102.231" viewBox="0 0 102.231 102.231">
  <g id="Group_16" data-name="Group 16">
    <g id="Group_15" data-name="Group 15">
      <path id="Path_18" data-name="Path 18" d="M95.564,40H87.243a37.611,37.611,0,0,0-2.72-6.574L90.4,27.551a6.677,6.677,0,0,0,0-9.434l-6.289-6.289a6.835,6.835,0,0,0-9.432,0L68.8,17.706a37.713,37.713,0,0,0-6.574-2.72V6.667A6.675,6.675,0,0,0,55.56,0h-8.89A6.675,6.675,0,0,0,40,6.667v8.321a37.784,37.784,0,0,0-6.574,2.72L27.549,11.83a6.677,6.677,0,0,0-9.432,0l-6.292,6.289a6.681,6.681,0,0,0,0,9.432L17.7,33.432a37.713,37.713,0,0,0-2.72,6.574H6.667A6.675,6.675,0,0,0,0,46.673v8.89a6.675,6.675,0,0,0,6.667,6.665h8.321a37.784,37.784,0,0,0,2.72,6.574L11.83,74.682a6.677,6.677,0,0,0,0,9.432l6.289,6.292a6.681,6.681,0,0,0,9.432,0l5.881-5.878a37.711,37.711,0,0,0,6.574,2.72v8.316a6.675,6.675,0,0,0,6.667,6.667h8.89a6.675,6.675,0,0,0,6.667-6.667V87.243a37.712,37.712,0,0,0,6.574-2.72L74.682,90.4a6.837,6.837,0,0,0,9.432,0L90.4,84.114a6.675,6.675,0,0,0,0-9.432L84.525,68.8a37.712,37.712,0,0,0,2.72-6.574h8.318a6.675,6.675,0,0,0,6.667-6.667v-8.89A6.675,6.675,0,0,0,95.564,40ZM97.786,55.56a2.225,2.225,0,0,1-2.222,2.222h-10a2.223,2.223,0,0,0-2.151,1.667,33.406,33.406,0,0,1-3.565,8.605,2.225,2.225,0,0,0,.342,2.7l7.067,7.07a2.232,2.232,0,0,1,0,3.147l-6.289,6.289a2.289,2.289,0,0,1-3.147,0l-7.067-7.067a2.225,2.225,0,0,0-2.7-.342,33.288,33.288,0,0,1-8.6,3.563,2.219,2.219,0,0,0-1.665,2.149v10a2.225,2.225,0,0,1-2.222,2.222h-8.89a2.226,2.226,0,0,1-2.222-2.222v-10a2.223,2.223,0,0,0-1.667-2.151,33.322,33.322,0,0,1-8.605-3.563,2.2,2.2,0,0,0-1.129-.309,2.221,2.221,0,0,0-1.573.651l-7.067,7.067a2.229,2.229,0,0,1-3.147,0L14.97,80.969a2.225,2.225,0,0,1,0-3.147l7.067-7.067a2.22,2.22,0,0,0,.342-2.7,33.367,33.367,0,0,1-3.563-8.605,2.219,2.219,0,0,0-2.149-1.667h-10A2.226,2.226,0,0,1,4.445,55.56v-8.89a2.226,2.226,0,0,1,2.222-2.222h10a2.223,2.223,0,0,0,2.151-1.667,33.322,33.322,0,0,1,3.563-8.605,2.219,2.219,0,0,0-.342-2.7l-7.067-7.067a2.229,2.229,0,0,1,0-3.147l6.289-6.289a2.227,2.227,0,0,1,3.147,0l7.067,7.067a2.216,2.216,0,0,0,2.7.342,33.367,33.367,0,0,1,8.605-3.563,2.223,2.223,0,0,0,1.667-2.151v-10a2.226,2.226,0,0,1,2.222-2.222h8.89a2.225,2.225,0,0,1,2.222,2.222v10a2.223,2.223,0,0,0,1.667,2.151,33.288,33.288,0,0,1,8.6,3.563,2.219,2.219,0,0,0,2.7-.342l7.067-7.067a2.282,2.282,0,0,1,3.147,0l6.289,6.289a2.232,2.232,0,0,1,0,3.147l-7.067,7.067a2.223,2.223,0,0,0-.342,2.7,33.374,33.374,0,0,1,3.565,8.605,2.219,2.219,0,0,0,2.149,1.667h10a2.225,2.225,0,0,1,2.222,2.222Z" fill="#c5baba"/>
    </g>
  </g>
  <g id="Group_18" data-name="Group 18" transform="translate(31.114 31.114)">
    <g id="Group_17" data-name="Group 17">
      <path id="Path_19" data-name="Path 19" d="M132,112a20,20,0,1,0,20,20A20.026,20.026,0,0,0,132,112Zm0,35.559A15.557,15.557,0,1,1,147.559,132,15.574,15.574,0,0,1,132,147.559Z" transform="translate(-112 -112)" fill="#c5baba"/>
    </g>
  </g>
</svg>
