<svg xmlns="http://www.w3.org/2000/svg" width="264" height="154" viewBox="0 0 264 154">
  <g id="Path_3" data-name="Path 3" fill="#fff">
    <path d="M 249 153 L 15 153 C 11.26046657562256 153 7.744766712188721 151.5437316894531 5.100500106811523 148.8995056152344 C 2.456266641616821 146.2552337646484 1 142.7395324707031 1 139 L 1 15 C 1 11.26046657562256 2.456266641616821 7.744766712188721 5.100500106811523 5.100500106811523 C 7.744766712188721 2.456266641616821 11.26046657562256 1 15 1 L 249 1 C 252.7395324707031 1 256.2552185058594 2.456266641616821 258.8995056152344 5.100500106811523 C 261.5437316894531 7.744766712188721 263 11.26046657562256 263 15 L 263 139 C 263 142.7395324707031 261.5437316894531 146.2552337646484 258.8995056152344 148.8995056152344 C 256.2552185058594 151.5437316894531 252.7395324707031 153 249 153 Z" stroke="none"/>
    <path d="M 15 2 C 11.52757263183594 2 8.262969970703125 3.352249145507813 5.8076171875 5.807601928710938 C 3.352264404296875 8.262969970703125 2 11.52757263183594 2 15 L 2 139 C 2 142.4724273681641 3.352264404296875 145.7370300292969 5.8076171875 148.1923980712891 C 8.262969970703125 150.6477508544922 11.52757263183594 152 15 152 L 249 152 C 252.4724273681641 152 255.7369995117188 150.6477508544922 258.1923828125 148.1923980712891 C 260.6477355957031 145.7369995117188 262 142.4724273681641 262 139 L 262 15 C 262 11.52757263183594 260.6477355957031 8.26300048828125 258.1923828125 5.807601928710938 C 255.7369995117188 3.352249145507813 252.4724273681641 2 249 2 L 15 2 M 15 0 L 249 0 C 257.2842407226563 0 264 6.715713500976563 264 15 L 264 139 C 264 147.2842864990234 257.2842407226563 154 249 154 L 15 154 C 6.715728759765625 154 0 147.2842864990234 0 139 L 0 15 C 0 6.715713500976563 6.715728759765625 0 15 0 Z" stroke="none" fill="#e16e6e"/>
  </g>
</svg>
