<svg id="right-arrow" xmlns="http://www.w3.org/2000/svg" width="58.101" height="48.336" viewBox="0 0 58.101 48.336">
  <g id="Group_14" data-name="Group 14" transform="translate(0)">
    <path id="Path_17" data-name="Path 17" d="M.929,63.257,21.911,42.274a3.189,3.189,0,0,1,4.5,0l1.905,1.906a3.156,3.156,0,0,1,.928,2.248,3.219,3.219,0,0,1-.928,2.275L16.073,60.97h38.89A3.1,3.1,0,0,1,58.1,64.1v2.694a3.222,3.222,0,0,1-3.139,3.265H15.934L28.313,82.392a3.149,3.149,0,0,1,0,4.465l-1.905,1.9a3.19,3.19,0,0,1-4.5,0L.928,67.77a3.207,3.207,0,0,1,0-4.513Z" transform="translate(0 -41.346)" fill="#fcf8f8"/>
  </g>
</svg>
